<?xml version="1.0" standalone="no"?>
<!DOCTYPE svg PUBLIC "-//W3C//DTD SVG 20010904//EN"
 "http://www.w3.org/TR/2001/REC-SVG-20010904/DTD/svg10.dtd">
<svg version="1.0" xmlns="http://www.w3.org/2000/svg"
 width="1614.000000pt" height="621.000000pt" viewBox="0 0 1614.000000 621.000000"
 preserveAspectRatio="xMidYMid meet">

<g transform="translate(0.000000,621.000000) scale(0.100000,-0.100000)"
fill="#000000" stroke="none">
<path d="M0 3105 l0 -3105 8070 0 8070 0 0 3105 0 3105 -8070 0 -8070 0 0
-3105z m6600 2131 c0 -7 -13 -16 -28 -18 -22 -3 -28 0 -29 14 -1 14 6 18 28
18 18 0 29 -5 29 -14z m-920 -26 c0 -13 -37 -13 -45 0 -3 6 -1 10 5 10 6 0 8
5 4 11 -4 8 0 8 15 0 11 -7 21 -16 21 -21z m957 24 c-3 -3 -12 -4 -19 -1 -8 3
-5 6 6 6 11 1 17 -2 13 -5z m2263 -44 c13 -9 13 -11 1 -19 -18 -12 -41 -3 -41
15 0 16 18 18 40 4z m1025 -50 c3 -5 1 -10 -4 -10 -6 0 -11 5 -11 10 0 6 2 10
4 10 3 0 8 -4 11 -10z m33 -37 c2 -7 -4 -13 -14 -13 -14 0 -15 -3 -6 -12 7 -7
12 -16 12 -20 0 -5 -13 5 -30 22 -16 17 -30 32 -30 34 0 11 64 -1 68 -11z
m-5538 -13 c0 -5 -4 -10 -10 -10 -5 0 -10 5 -10 10 0 6 5 10 10 10 6 0 10 -4
10 -10z m5457 4 c-3 -3 -12 -4 -19 -1 -8 3 -5 6 6 6 11 1 17 -2 13 -5z m-1483
-58 c-3 -7 2 -16 11 -20 22 -8 9 -26 -20 -26 -29 0 -43 18 -21 26 9 3 16 12
16 20 0 8 4 14 10 14 5 0 7 -6 4 -14z m-57 -32 c-3 -3 -12 -4 -19 -1 -8 3 -5
6 6 6 11 1 17 -2 13 -5z m-2560 -20 c-3 -3 -12 -4 -19 -1 -8 3 -5 6 6 6 11 1
17 -2 13 -5z m2491 -19 c-3 -3 -13 -2 -22 1 -14 5 -15 9 -4 15 13 8 36 -6 26
-16z m-573 -4 c30 -7 30 -7 -11 -14 -23 -4 -57 -4 -75 0 -33 7 -33 7 -9 14 31
9 56 9 95 0z m-4065 -5 c0 -2 -7 -7 -16 -10 -8 -3 -12 -2 -9 4 6 10 25 14 25
6z m2217 -32 c-3 -3 -12 -4 -19 -1 -8 3 -5 6 6 6 11 1 17 -2 13 -5z m3443 -14
c0 -5 -5 -10 -11 -10 -5 0 -7 5 -4 10 3 6 8 10 11 10 2 0 4 -4 4 -10z m2720
-60 c0 -5 -2 -10 -4 -10 -3 0 -8 5 -11 10 -3 6 -1 10 4 10 6 0 11 -4 11 -10z
m-3566 -37 c3 -4 27 -8 52 -9 54 -2 87 -24 35 -24 -18 0 -30 -4 -27 -9 3 -5
-1 -12 -10 -15 -8 -3 -12 -10 -9 -16 3 -5 1 -10 -4 -10 -6 0 -11 7 -11 16 0
10 -6 14 -15 10 -8 -3 -15 -1 -15 3 0 5 -10 7 -22 5 -13 -2 -16 -1 -8 2 23 10
30 27 18 41 -11 13 3 19 16 6z m2256 3 c0 -11 -19 -15 -25 -6 -3 5 1 10 9 10
9 0 16 -2 16 -4z m110 -20 c0 -11 -19 -15 -25 -6 -3 5 1 10 9 10 9 0 16 -2 16
-4z m-890 -53 c0 -14 -8 -18 -33 -18 -27 0 -33 3 -29 18 3 11 14 17 33 17 21
0 29 -5 29 -17z m-77 0 c-7 -2 -19 -2 -25 0 -7 3 -2 5 12 5 14 0 19 -2 13 -5z
m-270 -18 c1 -5 -6 -11 -15 -13 -11 -2 -18 3 -18 13 0 17 30 18 33 0z m1627
-70 c0 -9 -9 -15 -25 -15 -16 0 -25 6 -25 15 0 9 9 15 25 15 16 0 25 -6 25
-15z m-6573 -32 c-12 -11 -37 6 -31 21 5 14 8 14 21 0 9 -8 13 -18 10 -21z
m1423 15 c0 -13 -43 -6 -47 8 -2 7 6 10 22 7 14 -3 25 -10 25 -15z m1015 12
c3 -5 -1 -10 -9 -10 -9 0 -16 5 -16 10 0 6 4 10 9 10 6 0 13 -4 16 -10z
m-1865 -9 c0 -5 10 -7 23 -4 17 4 16 2 -7 -11 -28 -16 -66 -13 -66 4 0 7 17
15 43 19 4 0 7 -3 7 -8z m1744 -18 c-1 -16 -3 -31 -3 -35 -1 -4 -11 -4 -23 1
-26 9 -31 36 -8 36 8 0 19 6 23 13 11 17 13 15 11 -15z m-2403 -36 c-6 -6 -18
-6 -28 -2 -11 5 -13 9 -6 12 7 2 9 11 6 20 -5 12 -2 12 15 -3 13 -11 18 -22
13 -27z m-1456 23 c3 -5 -1 -10 -10 -10 -9 0 -13 5 -10 10 3 6 8 10 10 10 2 0
7 -4 10 -10z m6160 -20 c3 -5 -1 -10 -9 -10 -9 0 -16 5 -16 10 0 6 4 10 9 10
6 0 13 -4 16 -10z m1170 0 c3 -5 -1 -10 -10 -10 -9 0 -13 5 -10 10 3 6 8 10
10 10 2 0 7 -4 10 -10z m1105 -4 c0 -22 -16 -28 -29 -12 -9 11 -9 15 1 19 22
9 28 8 28 -7z m-6730 -65 c0 -6 -11 -11 -25 -11 -28 0 -30 3 -13 29 10 16 14
17 25 6 7 -8 13 -18 13 -24z m-1021 10 c9 -6 10 -10 2 -16 -16 -9 -44 2 -36
15 8 12 16 12 34 1z m4413 -3 c-9 -9 -15 -9 -24 0 -9 9 -7 12 12 12 19 0 21
-3 12 -12z m-686 -24 c49 -19 86 -26 128 -25 32 1 84 -6 115 -16 l56 -17 -47
-10 c-27 -5 -48 -13 -48 -18 0 -4 5 -8 11 -8 17 0 180 -63 175 -67 -6 -6 -398
-115 -400 -111 -2 2 -22 31 -46 65 -47 68 -37 65 -134 41 -21 -5 -41 -7 -44
-4 -13 13 21 58 53 72 37 15 38 16 2 67 -21 31 -16 43 23 50 56 10 91 6 156
-19z m5177 -10 c-2 -7 5 -18 17 -24 12 -6 19 -14 16 -17 -3 -4 -15 2 -26 12
-14 13 -28 16 -51 11 l-32 -6 22 19 c24 21 62 24 54 5z m-6358 -10 c12 -5 14
-9 4 -14 -15 -10 -41 -1 -33 11 6 11 8 11 29 3z m2202 0 c-3 -3 -12 -4 -19 -1
-8 3 -5 6 6 6 11 1 17 -2 13 -5z m-2407 -34 c0 -6 -5 -10 -11 -10 -5 0 -7 -5
-3 -11 4 -8 0 -8 -15 0 -22 12 -29 31 -10 31 5 0 7 5 3 11 -4 8 0 8 15 0 11
-7 21 -16 21 -21z m4023 11 c5 -1 5 -5 2 -11 -9 -15 -45 -12 -45 4 0 8 8 13
18 11 9 -2 21 -4 25 -4z m-3433 -11 c0 -5 -7 -10 -15 -10 -8 0 -15 5 -15 10 0
6 7 10 15 10 8 0 15 -4 15 -10z m6400 2 c0 -13 -12 -22 -22 -16 -10 6 -1 24
13 24 5 0 9 -4 9 -8z m-7053 -8 c-3 -3 -12 -4 -19 -1 -8 3 -5 6 6 6 11 1 17
-2 13 -5z m6838 -4 c-3 -5 0 -10 7 -11 7 0 0 -5 -17 -10 -34 -10 -55 -5 -55
13 0 8 15 14 36 16 21 1 33 -2 29 -8z m-8142 -7 c-7 -2 -19 -2 -25 0 -7 3 -2
5 12 5 14 0 19 -2 13 -5z m7957 3 c0 -9 -30 -14 -35 -6 -4 6 3 10 14 10 12 0
21 -2 21 -4z m-9990 -16 c0 -5 -7 -10 -15 -10 -8 0 -15 5 -15 10 0 6 7 10 15
10 8 0 15 -4 15 -10z m2697 4 c-3 -3 -12 -4 -19 -1 -8 3 -5 6 6 6 11 1 17 -2
13 -5z m327 -19 c3 -8 12 -12 21 -9 8 3 15 2 16 -2 0 -5 2 -19 3 -31 2 -18 0
-20 -10 -12 -7 6 -18 8 -24 4 -5 -3 -11 0 -12 7 0 7 -2 18 -2 23 -1 6 -5 16
-9 23 -5 6 -4 12 1 12 6 0 12 -7 16 -15z m7269 -15 c24 -28 21 -40 -8 -40 -16
0 -25 6 -25 15 0 9 -7 18 -16 22 -13 5 -13 7 -2 14 20 13 32 11 51 -11z
m-3981 -19 c226 -30 377 -62 546 -113 140 -43 137 -59 -8 -38 -107 16 -485 58
-635 71 -233 19 -500 16 -640 -9 -119 -21 -662 -155 -943 -233 -206 -57 -733
-206 -1077 -304 -552 -159 -600 -172 -620 -177 -11 -3 -225 -65 -475 -137
-251 -72 -464 -131 -473 -131 -22 0 -21 5 4 47 22 35 51 54 109 71 19 5 123
38 230 72 159 50 1153 339 1500 436 47 13 362 102 700 199 338 96 671 191 739
210 114 33 192 48 296 59 22 2 166 2 320 1 208 -3 318 -9 427 -24z m-2482 9
c0 -5 -4 -10 -10 -10 -5 0 -10 5 -10 10 0 6 5 10 10 10 6 0 10 -4 10 -10z
m5610 -10 c0 -5 -4 -10 -10 -10 -5 0 -10 5 -10 10 0 6 5 10 10 10 6 0 10 -4
10 -10z m-6443 -6 c-3 -3 -12 -4 -19 -1 -8 3 -5 6 6 6 11 1 17 -2 13 -5z
m-657 -25 c0 -5 -11 -9 -25 -9 -17 0 -23 4 -19 14 6 15 44 10 44 -5z m4760 11
c0 -5 -7 -10 -15 -10 -8 0 -15 5 -15 10 0 6 7 10 15 10 8 0 15 -4 15 -10z
m-2835 -10 c3 -5 1 -10 -4 -10 -6 0 -11 5 -11 10 0 6 2 10 4 10 3 0 8 -4 11
-10z m-3730 -20 c3 -5 1 -10 -4 -10 -6 0 -11 5 -11 10 0 6 2 10 4 10 3 0 8 -4
11 -10z m1942 4 c-3 -3 -12 -4 -19 -1 -8 3 -5 6 6 6 11 1 17 -2 13 -5z m-660
-10 c-3 -3 -12 -4 -19 -1 -8 3 -5 6 6 6 11 1 17 -2 13 -5z m-1113 -20 c21 -8
9 -33 -15 -27 -20 5 -24 15 -12 26 8 8 8 8 27 1z m10416 -24 c0 -5 -4 -10 -10
-10 -5 0 -10 5 -10 10 0 6 5 10 10 10 6 0 10 -4 10 -10z m-4757 -25 c121 -8
292 -24 380 -35 234 -31 497 -89 497 -111 0 -12 14 -13 -222 16 -396 47 -570
59 -873 59 -326 1 -349 -2 -665 -79 -102 -25 -243 -59 -315 -76 -71 -17 -267
-64 -435 -105 -168 -41 -354 -86 -415 -100 -121 -28 -1454 -363 -2102 -529
-227 -58 -420 -105 -430 -105 -16 0 -16 2 3 20 11 11 72 36 134 56 202 62
1139 326 1580 444 384 103 505 136 705 188 127 33 239 62 250 65 11 2 54 14
95 25 121 33 664 168 810 202 365 84 327 79 565 79 121 0 318 -6 438 -14z
m4702 4 c4 -6 14 -8 24 -4 11 4 13 3 6 -4 -12 -12 -55 -3 -55 10 0 12 17 11
25 -2z m-8775 -34 c-7 -8 -10 -20 -7 -27 3 -9 -6 -13 -28 -13 -25 0 -31 4 -27
18 2 10 14 17 28 17 12 0 26 5 29 10 3 6 9 10 12 10 3 0 0 -7 -7 -15z m-2375
-16 c10 -15 -1 -23 -20 -15 -9 3 -13 10 -10 16 8 13 22 13 30 -1z m10965 -12
c0 -1 -10 -11 -22 -21 -18 -15 -20 -16 -15 -2 4 9 2 16 -3 16 -5 0 -7 7 -4 15
5 11 11 12 25 4 10 -5 19 -11 19 -12z m-9685 -7 c-3 -5 -16 -10 -28 -9 -20 1
-20 2 3 9 14 4 26 8 28 9 2 1 0 -3 -3 -9z m6671 -2 c-9 -5 -13 -16 -10 -26 4
-10 3 -13 -3 -6 -4 6 -16 13 -26 17 -27 10 -11 26 24 25 23 -1 27 -3 15 -10z
m104 8 c0 -11 -19 -15 -25 -6 -3 5 1 10 9 10 9 0 16 -2 16 -4z m-7495 -16 c-3
-5 7 -13 22 -16 l28 -7 -35 -12 c-41 -14 -50 -11 -50 16 0 11 4 18 9 14 5 -3
12 -1 16 5 3 5 8 10 11 10 3 0 2 -4 -1 -10z m3025 -6 c0 -10 6 -14 15 -10 8 3
15 4 15 2 0 -3 3 -11 6 -20 4 -11 1 -16 -11 -16 -14 0 -15 -3 -5 -14 10 -13 8
-13 -14 -3 -25 12 -43 47 -24 47 6 0 8 7 4 15 -3 8 -1 15 4 15 6 0 10 -7 10
-16z m5810 -4 c0 -5 -7 -10 -15 -10 -8 0 -15 5 -15 10 0 6 7 10 15 10 8 0 15
-4 15 -10z m560 6 c0 -11 -19 -15 -25 -6 -3 5 1 10 9 10 9 0 16 -2 16 -4z
m-5560 -33 l45 -19 -80 -22 c-44 -12 -128 -35 -187 -51 l-108 -29 0 33 c0 42
39 91 83 105 51 15 196 6 247 -17z m-733 11 c-3 -3 -12 -4 -19 -1 -8 3 -5 6 6
6 11 1 17 -2 13 -5z m-114 -21 c-7 -2 -19 -2 -25 0 -7 3 -2 5 12 5 14 0 19 -2
13 -5z m3016 -3 c241 -10 465 -29 656 -55 160 -21 185 -27 185 -37 0 -7 -126
-7 -362 -2 -574 14 -883 11 -1013 -10 -98 -16 -476 -93 -1135 -232 -338 -72
-1254 -272 -1845 -404 -1009 -225 -1267 -281 -1271 -277 -8 7 7 35 21 41 8 3
182 44 387 91 205 48 436 102 513 120 77 18 187 45 245 59 271 65 387 93 825
201 259 64 517 127 575 141 58 14 188 46 290 70 358 87 1069 247 1220 274 146
27 383 33 709 20z m4111 0 c0 -5 -9 -10 -21 -10 -11 0 -17 5 -14 10 3 6 13 10
21 10 8 0 14 -4 14 -10z m-1940 -30 c0 -5 -4 -10 -10 -10 -5 0 -10 5 -10 10 0
6 5 10 10 10 6 0 10 -4 10 -10z m-8365 -20 c-3 -5 3 -10 12 -13 10 -2 -3 -3
-29 -2 -51 1 -70 11 -50 24 16 9 74 2 67 -9z m1345 -30 c0 -5 -9 -10 -20 -10
-11 0 -20 5 -20 10 0 6 9 10 20 10 11 0 20 -4 20 -10z m2276 -18 l56 -17 -178
-49 c-98 -26 -184 -50 -190 -53 -19 -7 -27 35 -14 67 13 32 50 60 95 71 43 11
165 1 231 -19z m-3676 14 c0 -3 -4 -8 -10 -11 -5 -3 -10 -1 -10 4 0 6 5 11 10
11 6 0 10 -2 10 -4z m3317 -2 c-3 -3 -12 -4 -19 -1 -8 3 -5 6 6 6 11 1 17 -2
13 -5z m5314 -24 c10 -6 19 -17 19 -25 0 -11 -60 -105 -102 -160 -4 -5 -71
-95 -147 -198 -167 -224 -317 -402 -434 -514 -152 -146 -241 -190 -400 -199
-51 -3 -492 -20 -982 -39 -489 -20 -1059 -42 -1265 -50 -206 -8 -492 -19 -635
-25 -143 -6 -370 -15 -505 -20 -135 -5 -371 -14 -525 -20 -154 -5 -404 -14
-555 -20 -315 -11 -835 -27 -1185 -35 -200 -5 -250 -4 -300 9 -98 26 -217 90
-276 149 -51 50 -99 121 -89 131 5 4 411 69 1005 161 221 34 309 48 515 81 52
8 122 19 155 24 91 14 245 38 348 55 112 18 378 59 587 90 85 13 211 33 280
44 69 10 231 36 360 55 680 105 667 102 820 174 119 56 176 68 505 108 600 72
1295 136 2180 199 527 38 596 41 626 25z m514 -20 c4 -6 -5 -10 -19 -10 -14 0
-26 5 -26 10 0 6 9 10 19 10 11 0 23 -4 26 -10z m-1994 -17 c14 -14 -13 -17
-461 -43 -410 -25 -688 -46 -786 -59 -40 -6 -278 -49 -530 -96 -253 -47 -592
-110 -754 -140 -162 -31 -342 -64 -400 -75 -58 -11 -240 -45 -405 -75 -165
-30 -383 -71 -485 -90 -102 -19 -367 -68 -590 -110 -223 -41 -613 -113 -868
-160 -255 -48 -468 -85 -473 -83 -6 2 -4 10 3 20 9 12 48 24 113 37 55 11 593
119 1195 241 602 121 1183 238 1290 260 438 88 1200 243 1426 289 421 86 590
99 1266 97 324 -1 450 -4 459 -13z m3099 3 c0 -11 -19 -15 -25 -6 -3 5 1 10 9
10 9 0 16 -2 16 -4z m-7806 -36 c34 -5 122 -19 196 -30 159 -24 193 -31 188
-36 -10 -9 -606 -187 -632 -188 -27 -1 -31 4 -52 64 -12 36 -25 82 -29 102
l-7 37 94 29 c101 33 149 37 242 22z m6951 1 c7 -12 -12 -24 -25 -16 -11 7 -4
25 10 25 5 0 11 -4 15 -9z m1389 -21 c14 0 26 5 26 10 0 6 5 10 11 10 8 0 9
-4 0 -13 -6 -8 -8 -16 -5 -20 3 -3 -4 -10 -15 -17 -12 -6 -21 -8 -21 -5 0 3
-10 0 -22 -6 -21 -11 -22 -11 -9 4 11 14 11 17 1 17 -8 0 -10 3 -7 7 4 3 -1
12 -11 20 -15 13 -15 13 5 4 12 -6 33 -11 47 -11z m-10919 -20 c3 -5 -3 -10
-14 -10 -12 0 -21 5 -21 10 0 6 6 10 14 10 8 0 18 -4 21 -10z m9938 -3 c3 -8
-4 -14 -20 -15 -30 -2 -46 6 -38 19 9 14 52 11 58 -4z m1042 -17 c3 -6 -1 -7
-9 -4 -18 7 -21 14 -7 14 6 0 13 -4 16 -10z m-7626 -7 c20 -5 1 -13 -85 -39
-60 -18 -154 -46 -209 -62 -101 -31 -596 -173 -802 -231 -62 -17 -120 -34
-128 -37 -28 -11 -16 24 23 64 40 42 104 66 437 161 456 130 668 170 764 144z
m-1242 -9 c-3 -3 -12 -4 -19 -1 -8 3 -5 6 6 6 11 1 17 -2 13 -5z m9020 -75
c-4 -14 -2 -19 8 -15 8 3 12 -2 10 -12 -2 -9 -4 -20 -4 -24 -1 -4 -8 -5 -16
-2 -9 4 -15 0 -15 -9 0 -9 -5 -19 -11 -23 -8 -4 -9 0 -4 15 4 14 2 21 -7 21
-22 0 -18 47 6 58 32 16 39 14 33 -9z m-10817 1 c0 -5 -7 -10 -16 -10 -8 0
-12 5 -9 10 3 6 10 10 16 10 5 0 9 -4 9 -10z m93 -33 c-3 -5 5 -7 18 -3 13 3
5 -3 -19 -14 -30 -13 -49 -17 -65 -11 -19 8 -20 10 -5 16 10 4 16 10 14 14 -2
3 11 6 29 7 19 0 31 -4 28 -9z m232 -7 c3 -5 -1 -10 -10 -10 -9 0 -13 5 -10
10 3 6 8 10 10 10 2 0 7 -4 10 -10z m-175 -14 c0 -11 -19 -15 -25 -6 -3 5 1
10 9 10 9 0 16 -2 16 -4z m8545 -6 c-3 -5 -14 -10 -23 -10 -15 0 -15 2 -2 10
20 13 33 13 25 0z m665 0 c0 -5 -4 -10 -9 -10 -6 0 -13 5 -16 10 -3 6 1 10 9
10 9 0 16 -4 16 -10z m-9075 -10 c-3 -5 -11 -10 -16 -10 -6 0 -7 5 -4 10 3 6
11 10 16 10 6 0 7 -4 4 -10z m8379 -5 c14 -11 16 -15 5 -15 -10 -1 -9 -5 5
-15 11 -8 15 -15 9 -15 -7 0 -15 4 -18 10 -3 5 -24 8 -46 6 l-40 -4 26 24 c30
28 33 28 59 9z m116 5 c0 -5 -6 -10 -14 -10 -8 0 -18 5 -21 10 -3 6 3 10 14
10 12 0 21 -4 21 -10z m260 -20 c0 -12 -28 -20 -45 -14 -11 5 -13 10 -5 19 11
13 50 9 50 -5z m955 0 c-3 -5 -10 -10 -16 -10 -5 0 -9 5 -9 10 0 6 7 10 16 10
8 0 12 -4 9 -10z m835 -10 c0 -5 -5 -10 -11 -10 -5 0 -7 5 -4 10 3 6 8 10 11
10 2 0 4 -4 4 -10z m-1300 -50 c0 -5 -7 -10 -15 -10 -8 0 -15 5 -15 10 0 6 7
10 15 10 8 0 15 -4 15 -10z m950 -10 c0 -5 -10 -10 -22 -10 -19 0 -20 2 -8 10
19 13 30 13 30 0z m-9517 -40 c4 -16 1 -17 -27 -9 -17 5 -33 9 -36 9 -3 0 3 7
13 15 23 16 43 10 50 -15z m8117 10 c0 -5 -4 -10 -10 -10 -5 0 -10 5 -10 10 0
6 5 10 10 10 6 0 10 -4 10 -10z m1075 -40 c-3 -4 -20 -8 -39 -7 -28 1 -31 3
-20 15 8 7 14 18 14 23 0 5 11 2 25 -7 14 -9 23 -20 20 -24z m-9815 26 c0 -11
-19 -15 -25 -6 -3 5 1 10 9 10 9 0 16 -2 16 -4z m8660 -6 c0 -5 -2 -10 -4 -10
-3 0 -8 5 -11 10 -3 6 -1 10 4 10 6 0 11 -4 11 -10z m1650 -24 c-14 -14 -32 3
-17 18 9 10 14 11 19 2 4 -6 3 -15 -2 -20z m-10810 14 c0 -5 -4 -10 -9 -10 -6
0 -13 5 -16 10 -3 6 1 10 9 10 9 0 16 -4 16 -10z m8660 -70 c0 -5 -7 -10 -15
-10 -8 0 -15 5 -15 10 0 6 7 10 15 10 8 0 15 -4 15 -10z m1003 -6 c-4 -13 -26
-11 -30 3 -2 6 4 10 14 9 10 -2 17 -7 16 -12z m-965 -16 c-4 -12 -38 -21 -38
-9 0 12 12 21 28 21 7 0 12 -5 10 -12z m1142 -48 c0 -5 -4 -10 -9 -10 -6 0
-13 5 -16 10 -3 6 1 10 9 10 9 0 16 -4 16 -10z m-976 -12 c-4 -6 1 -17 11 -24
16 -12 14 -13 -16 -11 -19 2 -43 8 -53 14 -17 9 -16 11 8 11 15 0 33 5 39 11
14 14 20 14 11 -1z m-7344 -8 c0 -5 -9 -10 -21 -10 -11 0 -17 5 -14 10 3 6 13
10 21 10 8 0 14 -4 14 -10z m-1784 -25 c-16 -16 -30 -20 -22 -6 4 5 0 12 -6
14 -7 3 0 6 15 6 25 1 27 -1 13 -14z m9578 6 c3 -5 -1 -12 -10 -15 -25 -10
-34 -7 -34 9 0 16 35 21 44 6z m-9628 -12 c9 -16 -18 -30 -33 -17 -7 6 -10 14
-7 19 7 13 31 11 40 -2z m9136 -21 c-7 -7 -12 -8 -12 -2 0 14 12 26 19 19 2
-3 -1 -11 -7 -17z m1166 -6 c5 -17 -17 -15 -34 3 -14 13 -13 15 7 12 13 -2 25
-9 27 -15z m-9788 -42 c0 -5 -2 -10 -4 -10 -3 0 -8 5 -11 10 -3 6 -1 10 4 10
6 0 11 -4 11 -10z m895 -20 c3 -5 -1 -10 -9 -10 -9 0 -16 5 -16 10 0 6 4 10 9
10 6 0 13 -4 16 -10z m-1223 -22 c-9 -9 -15 -9 -24 0 -9 9 -7 12 12 12 19 0
21 -3 12 -12z m1355 6 c-3 -3 -12 -4 -19 -1 -8 3 -5 6 6 6 11 1 17 -2 13 -5z
m8368 -4 c3 -5 -1 -10 -9 -10 -9 0 -16 5 -16 10 0 6 4 10 9 10 6 0 13 -4 16
-10z m472 4 c-3 -3 -12 -4 -19 -1 -8 3 -5 6 6 6 11 1 17 -2 13 -5z m-9039 -37
c2 -10 -3 -17 -11 -17 -18 0 -39 24 -30 34 12 12 38 2 41 -17z m371 -3 c-6 -8
-18 -14 -25 -14 -8 0 -14 -6 -14 -12 0 -10 -2 -10 -9 0 -4 7 -14 12 -21 10 -7
-2 -13 6 -14 17 -2 18 3 20 46 17 41 -3 47 -6 37 -18z m-999 6 c0 -5 -2 -10
-4 -10 -3 0 -8 5 -11 10 -3 6 -1 10 4 10 6 0 11 -4 11 -10z m460 1 c0 -14 -18
-23 -30 -16 -6 4 -8 11 -5 16 8 12 35 12 35 0z m7975 -1 c3 -5 1 -10 -4 -10
-6 0 -11 5 -11 10 0 6 2 10 4 10 3 0 8 -4 11 -10z m-235 -40 c0 -5 -9 -10 -21
-10 -11 0 -17 5 -14 10 3 6 13 10 21 10 8 0 14 -4 14 -10z m-8886 -6 c22 -9
10 -24 -20 -24 -15 0 -24 6 -24 15 0 16 17 19 44 9z m10516 -14 c0 -15 -33
-20 -47 -8 -13 10 -12 13 4 19 20 7 43 1 43 -11z m453 8 c-4 -7 -8 -17 -8 -22
0 -10 -56 -28 -64 -21 -2 3 1 5 7 5 6 0 9 7 6 15 -5 11 1 15 19 15 14 0 29 5
32 10 3 6 8 10 11 10 3 0 2 -6 -3 -12z m-887 -40 c4 -6 3 -8 -4 -4 -6 3 -18
-1 -26 -10 -9 -8 -16 -13 -16 -11 0 3 -3 12 -6 21 -5 12 0 16 19 16 14 0 29
-5 33 -12z m-9272 -36 c3 -5 -1 -9 -9 -9 -8 0 -12 4 -9 9 3 4 7 8 9 8 2 0 6
-4 9 -8z m8172 -2 c8 0 14 -4 14 -10 0 -16 -36 -11 -51 7 -12 15 -12 16 4 10
10 -4 25 -7 33 -7z m1917 -6 c23 -9 22 -24 -3 -24 -11 0 -20 6 -20 14 0 8 -5
17 -10 19 -10 5 -2 3 33 -9z m267 -4 c0 -5 -4 -10 -10 -10 -5 0 -10 5 -10 10
0 6 5 10 10 10 6 0 10 -4 10 -10z m-2480 -14 c0 -2 -9 -6 -20 -9 -11 -3 -18
-1 -14 4 5 9 34 13 34 5z m-7982 -21 c1 -6 -9 -11 -23 -13 -18 -2 -23 1 -20
11 6 15 38 17 43 2z m8009 -5 c1 -15 -4 -20 -23 -20 -30 0 -31 14 -1 28 12 6
22 11 22 11 1 1 1 -8 2 -19z m78 0 c3 -5 -1 -10 -10 -10 -9 0 -13 5 -10 10 3
6 8 10 10 10 2 0 7 -4 10 -10z m2420 -10 c3 -5 -1 -10 -9 -10 -9 0 -16 5 -16
10 0 6 4 10 9 10 6 0 13 -4 16 -10z m75 -60 c0 -5 -4 -10 -9 -10 -6 0 -13 5
-16 10 -3 6 1 10 9 10 9 0 16 -4 16 -10z m-966 -29 c7 -10 61 -9 72 2 4 4 12
7 18 7 5 0 1 -7 -10 -15 -10 -8 -15 -15 -10 -15 6 0 1 -6 -9 -14 -11 -8 -23
-12 -27 -10 -4 3 -18 -1 -30 -7 -20 -11 -21 -10 -11 3 11 12 8 14 -17 10 -18
-3 -30 0 -30 7 0 6 15 11 33 11 30 1 31 1 13 15 -11 8 -15 15 -9 15 7 0 14 -4
17 -9z m-10434 -21 c0 -5 -4 -10 -10 -10 -5 0 -10 5 -10 10 0 6 5 10 10 10 6
0 10 -4 10 -10z m8810 -30 c0 -5 -9 -10 -21 -10 -11 0 -17 5 -14 10 3 6 13 10
21 10 8 0 14 -4 14 -10z m-8550 -50 c0 -5 -9 -10 -20 -10 -11 0 -20 5 -20 10
0 6 9 10 20 10 11 0 20 -4 20 -10z m10615 -10 c3 -5 -1 -10 -10 -10 -9 0 -13
5 -10 10 3 6 8 10 10 10 2 0 7 -4 10 -10z m-10398 -6 c-3 -3 -12 -4 -19 -1 -8
3 -5 6 6 6 11 1 17 -2 13 -5z m9963 -28 c0 -3 -4 -8 -10 -11 -5 -3 -10 -1 -10
4 0 6 5 11 10 11 6 0 10 -2 10 -4z m-820 -10 c0 -2 -7 -6 -15 -10 -8 -3 -15
-1 -15 4 0 6 7 10 15 10 8 0 15 -2 15 -4z m-145 -26 c3 -5 -1 -10 -9 -10 -9 0
-16 5 -16 10 0 6 4 10 9 10 6 0 13 -4 16 -10z m465 -20 c0 -5 -4 -10 -10 -10
-5 0 -10 5 -10 10 0 6 5 10 10 10 6 0 10 -4 10 -10z m1358 -66 c-4 -3 -15 -1
-25 5 -11 6 -13 11 -5 11 8 0 10 5 6 13 -4 6 1 4 11 -5 11 -10 16 -20 13 -24z
m-1583 16 c3 -5 1 -10 -4 -10 -6 0 -11 5 -11 10 0 6 2 10 4 10 3 0 8 -4 11
-10z m-9238 -66 c-3 -3 -12 -4 -19 -1 -8 3 -5 6 6 6 11 1 17 -2 13 -5z m-422
-24 c3 -5 -3 -10 -15 -10 -12 0 -18 5 -15 10 3 6 10 10 15 10 5 0 12 -4 15
-10z m2628 -7 c27 -15 29 -18 12 -21 -76 -14 -97 -25 -125 -64 -50 -68 -46
-70 85 -62 83 5 123 3 145 -6 58 -24 35 -35 -73 -35 -141 0 -193 -10 -202 -38
-3 -12 -9 -89 -12 -172 -5 -134 -3 -156 15 -203 11 -29 16 -54 11 -58 -18 -11
-84 31 -110 71 -49 73 -56 139 -32 328 l6 47 -82 0 c-69 0 -84 3 -99 20 -9 12
-17 23 -17 27 0 3 47 7 104 7 l104 1 16 45 c9 25 23 56 32 68 41 57 156 80
222 45z m3927 -17 c47 -31 80 -97 87 -176 l6 -60 48 0 47 0 8 90 c6 86 8 91
32 97 17 4 38 -1 61 -13 39 -21 40 -26 28 -126 l-7 -56 70 -12 c38 -6 73 -16
76 -21 3 -6 -4 -8 -18 -4 -12 2 -48 6 -78 7 l-55 3 0 -115 c0 -63 4 -125 8
-137 7 -20 5 -23 -18 -23 -56 0 -105 104 -105 224 l0 58 -47 -5 c-27 -3 -49
-6 -50 -6 -2 -1 -3 -12 -3 -25 0 -53 -32 -173 -56 -209 -31 -46 -102 -93 -155
-102 -22 -4 -42 -5 -45 -3 -2 3 13 23 35 45 46 49 70 112 78 207 l6 69 -36 -7
c-20 -4 -64 -16 -98 -27 -62 -20 -62 -20 -82 -1 -33 34 -16 48 80 65 48 9 99
18 113 19 24 3 25 6 28 83 6 155 -28 193 -146 160 -92 -26 -165 -88 -187 -159
-4 -14 -9 -16 -17 -8 -17 17 0 60 40 100 95 95 262 128 352 68z m4177 18 c-3
-3 -12 -4 -19 -1 -8 3 -5 6 6 6 11 1 17 -2 13 -5z m-10270 -40 c-3 -3 -12 -4
-19 -1 -8 3 -5 6 6 6 11 1 17 -2 13 -5z m3835 -10 c29 -15 30 -17 24 -65 l-7
-49 43 -1 c24 0 51 -2 60 -4 24 -4 34 11 50 75 12 49 17 55 42 58 15 2 39 -4
53 -13 23 -16 25 -21 19 -66 l-7 -49 203 0 c115 0 197 -4 188 -9 -15 -8 -158
-25 -321 -37 l-87 -6 -15 -57 c-43 -156 -44 -223 -8 -295 l19 -36 -29 0 c-35
0 -90 46 -113 94 -20 43 -20 131 -1 215 19 77 14 82 -65 79 l-55 -3 -22 -85
c-28 -108 -29 -191 -3 -249 25 -53 25 -51 -2 -51 -37 0 -86 36 -108 80 -23 46
-26 47 -54 21 -47 -42 -127 -51 -214 -26 -110 33 -142 113 -83 207 39 62 73
78 161 78 79 0 110 -19 110 -66 0 -60 -54 -100 -127 -91 -55 6 -64 -9 -32 -54
43 -60 119 -69 186 -21 25 18 29 27 31 80 1 33 9 85 17 116 8 31 15 59 15 61
0 3 -35 5 -78 5 -78 0 -162 17 -224 44 -31 14 -26 15 82 10 63 -3 144 -1 179
3 l64 8 12 43 c20 67 23 72 45 72 12 0 35 -7 52 -16z m-2989 -17 c54 -23 57
-33 42 -122 -35 -198 -41 -344 -15 -385 11 -18 42 2 115 75 71 72 81 94 88
195 7 110 38 197 73 206 26 7 130 1 139 -7 2 -3 -7 -32 -20 -65 -54 -131 -59
-262 -13 -354 l25 -50 -48 0 c-56 0 -98 30 -129 91 l-20 38 -43 -46 c-68 -74
-148 -123 -199 -123 -37 0 -49 6 -75 33 -50 52 -56 74 -61 197 -4 103 17 293
34 322 8 13 72 9 107 -5z m4402 -17 c17 -18 17 -24 -5 -147 -31 -173 -32 -274
-3 -330 22 -42 22 -43 2 -43 -31 0 -94 36 -112 64 -33 50 -42 109 -28 193 34
212 43 269 48 276 9 16 80 7 98 -13z m1742 14 c34 -9 36 -35 12 -157 -12 -64
-22 -153 -23 -209 -1 -85 2 -100 22 -127 30 -40 28 -45 -13 -38 -74 12 -135
90 -135 173 0 38 45 324 55 352 5 13 45 16 82 6z m2691 -8 c9 -5 9 -10 -1 -21
-14 -15 -39 -5 -43 17 -2 15 22 18 44 4z m-1955 -18 c20 -8 26 -16 22 -27 -52
-131 -59 -167 -60 -286 0 -75 5 -134 14 -158 7 -21 11 -41 8 -44 -20 -19 -137
49 -137 81 0 20 -19 42 -27 31 -18 -25 -75 -56 -105 -57 -65 -2 -86 2 -122 27
l-38 25 -30 -25 c-54 -46 -141 -25 -173 41 -17 35 -21 170 -6 193 8 12 19 13
58 5 l48 -9 5 -85 c5 -79 20 -130 38 -130 21 0 60 58 65 97 6 52 48 108 101
136 32 17 58 21 122 21 l82 0 16 68 c27 112 31 119 63 112 16 -3 41 -10 56
-16z m-2983 -39 c31 -11 32 -13 25 -53 -18 -107 -25 -165 -25 -208 0 -84 10
-84 46 -2 45 104 65 124 125 124 64 0 92 -14 118 -60 43 -77 20 -176 -51 -220
-35 -21 -148 -29 -148 -10 0 6 11 10 24 10 30 0 62 39 77 94 12 46 6 131 -12
152 -19 23 -61 -16 -101 -93 -49 -95 -53 -111 -32 -134 9 -10 15 -22 12 -24
-13 -13 -93 16 -122 45 l-33 31 -50 -51 c-64 -64 -99 -67 -149 -14 -19 19 -34
42 -34 50 0 23 -15 17 -53 -21 -32 -32 -40 -35 -92 -35 -49 0 -60 4 -86 29
-24 24 -29 38 -29 76 0 127 119 210 273 191 28 -4 60 -13 69 -20 21 -16 28
-57 11 -63 -7 -3 -13 2 -13 10 0 23 -28 47 -56 47 -67 0 -137 -69 -159 -158
-13 -52 -3 -102 20 -102 21 0 63 61 85 121 l18 54 49 3 c66 3 76 -6 80 -75 8
-119 19 -128 72 -58 31 42 33 48 27 102 -6 51 11 193 30 256 6 20 37 22 84 6z
m2454 -52 c17 -14 26 -29 22 -35 -17 -28 -176 1 -176 32 0 22 12 26 69 26 44
0 62 -5 85 -23z m2616 -37 c0 -5 -4 -10 -10 -10 -5 0 -10 5 -10 10 0 6 5 10
10 10 6 0 10 -4 10 -10z m-6686 -11 c21 -10 43 -38 34 -43 -2 -1 -30 -18 -62
-37 -70 -40 -116 -104 -116 -159 0 -42 14 -60 47 -60 17 0 23 6 23 23 0 38 20
50 46 26 l21 -20 26 31 c24 28 47 86 47 118 0 18 17 15 40 -8 19 -19 19 -22 5
-58 -18 -42 -57 -86 -97 -110 -17 -10 -28 -25 -28 -38 0 -19 8 -22 96 -33 141
-17 204 -57 204 -130 0 -37 -28 -60 -124 -100 -127 -53 -259 -83 -391 -88
-139 -6 -185 3 -247 50 -73 56 -58 86 57 116 61 16 199 26 192 14 -4 -6 -32
-13 -64 -16 -69 -7 -147 -33 -164 -53 -27 -32 5 -39 179 -38 200 1 339 25 442
76 82 41 92 69 33 96 -37 16 -121 18 -387 9 -37 -2 -51 2 -60 15 -19 30 12 48
93 55 59 5 71 9 69 22 -2 10 -15 17 -35 19 -45 4 -102 58 -113 107 -11 51 8
93 72 158 66 66 108 80 162 56z m-291 -10 c35 -9 37 -12 37 -49 0 -52 -27 -80
-77 -80 -51 0 -67 12 -61 44 4 21 3 24 -8 15 -22 -18 -73 -103 -89 -148 -13
-38 -13 -46 0 -71 8 -16 15 -32 15 -36 0 -13 -82 5 -102 22 -44 40 -65 134
-49 220 15 81 29 93 84 74 46 -17 45 -10 32 -125 l-6 -60 35 66 c36 68 104
139 134 139 9 0 34 -5 55 -11z m7753 -19 c1 -25 -3 -30 -22 -30 -30 0 -30 6
-1 36 12 13 22 24 22 24 0 0 0 -14 1 -30z m-8833 -2 c22 -11 21 -18 -7 -109
-23 -75 -27 -131 -12 -176 6 -19 4 -23 -13 -23 -30 0 -73 19 -98 42 -26 24
-29 67 -12 148 6 28 9 54 6 57 -3 3 -29 -40 -57 -96 -28 -56 -59 -110 -70
-121 -25 -25 -66 -18 -102 17 -26 24 -28 25 -29 7 0 -14 -2 -15 -6 -4 -3 8
-10 18 -16 21 -5 4 -6 13 -1 20 8 14 7 101 -3 133 -5 18 -1 19 55 14 33 -4 66
-9 72 -13 8 -5 9 -27 5 -71 -4 -35 -3 -64 1 -64 5 0 27 32 49 72 49 86 108
155 138 161 27 4 76 -3 100 -15z m3827 2 c22 -22 26 -60 10 -91 -18 -33 -68
-52 -122 -46 -34 4 -48 3 -48 -6 0 -26 42 -79 74 -92 51 -22 124 2 165 54 17
21 31 44 31 50 0 6 7 11 16 11 13 0 12 -6 -7 -37 -47 -76 -120 -122 -195 -123
-62 0 -137 26 -174 61 -30 29 -32 35 -28 84 5 59 34 106 82 136 45 28 168 27
196 -1z m2806 3 c18 -7 17 -19 -1 -90 -16 -62 -20 -140 -7 -160 11 -18 95 153
96 196 l1 33 48 -5 c27 -2 53 -9 60 -16 7 -7 11 -51 12 -114 0 -82 -4 -110
-20 -142 -48 -97 -163 -162 -265 -151 -55 7 -100 28 -100 47 0 7 7 8 18 4 9
-4 36 -10 59 -12 54 -7 123 25 161 75 23 30 27 46 30 111 l2 76 -30 -65 c-17
-35 -36 -68 -43 -72 -32 -20 -115 3 -135 38 -7 13 -12 12 -33 -13 -34 -40 -69
-63 -97 -63 -33 0 -77 33 -92 70 -7 16 -15 30 -19 30 -4 0 -22 -16 -41 -35
-31 -32 -39 -35 -93 -35 -52 0 -62 3 -89 30 -28 28 -30 35 -26 83 11 126 122
202 271 183 61 -8 83 -22 92 -59 10 -39 -20 -36 -34 3 -8 25 -16 30 -41 30
-85 0 -170 -100 -170 -198 0 -24 6 -45 16 -53 14 -12 20 -9 45 21 24 29 48 79
65 138 2 8 23 12 58 12 65 0 76 -12 76 -87 0 -60 9 -93 24 -93 7 0 26 19 43
43 29 41 37 74 49 217 1 19 3 37 3 39 1 4 88 -9 107 -16z m533 8 c13 -3 29
-15 35 -25 9 -15 4 -24 -33 -57 -56 -50 -74 -51 -65 -4 5 30 4 35 -13 35 -10
0 -29 -7 -41 -16 -25 -17 -57 -73 -47 -82 3 -3 40 -9 81 -13 112 -11 133 -41
69 -98 -65 -56 -151 -85 -209 -70 l-41 11 50 19 c28 11 73 36 100 57 l50 37
-76 5 c-94 7 -129 27 -129 72 0 94 146 164 269 129z m-9369 -11 c0 -5 -7 -10
-15 -10 -8 0 -15 5 -15 10 0 6 7 10 15 10 8 0 15 -4 15 -10z m2864 -31 c27
-32 33 -73 19 -140 -10 -51 -81 -116 -134 -124 -56 -8 -116 12 -141 46 -44 59
-29 171 27 199 17 8 41 23 55 33 17 12 44 17 86 17 57 0 64 -3 88 -31z m4344
11 c28 -26 36 -60 29 -122 -12 -98 -71 -152 -167 -153 -95 0 -150 62 -134 152
8 44 34 93 49 93 6 0 26 11 45 25 45 33 144 36 178 5z m3869 -6 c-3 -3 -12 -4
-19 -1 -8 3 -5 6 6 6 11 1 17 -2 13 -5z m-10617 -55 c0 -5 -21 -9 -47 -8 l-48
1 40 12 c41 13 55 12 55 -5z m10183 -30 c-13 -13 -2 -30 27 -42 8 -4 2 -5 -13
-2 -21 4 -27 2 -21 -6 5 -9 2 -10 -11 -5 -11 4 -25 0 -36 -10 -21 -19 -27 -6
-7 14 9 9 9 12 0 12 -10 0 -10 4 0 19 7 11 16 18 20 15 4 -3 16 0 25 5 24 14
30 14 16 0z m-9941 -111 c-12 -12 -35 -1 -27 12 3 5 13 6 21 3 10 -4 12 -9 6
-15z m1055 -4 c-3 -3 -12 -4 -19 -1 -8 3 -5 6 6 6 11 1 17 -2 13 -5z m8800 0
c-3 -3 -12 -4 -19 -1 -8 3 -5 6 6 6 11 1 17 -2 13 -5z m67 -2 c2 -4 -7 -18
-21 -30 -15 -14 -23 -17 -20 -8 4 9 2 18 -4 21 -5 4 -7 11 -4 16 7 11 42 12
49 1z m-10444 -107 c11 -13 8 -15 -18 -15 -17 0 -32 6 -36 15 -4 11 1 15 18
15 13 0 29 -7 36 -15z m9866 -4 c0 -15 -5 -17 -20 -11 -29 10 -32 30 -4 30 17
0 24 -6 24 -19z m-10022 -16 c-4 -8 -12 -15 -20 -15 -20 0 -17 18 4 23 9 3 18
5 19 6 1 0 0 -6 -3 -14z m2376 -45 c0 -5 -4 -10 -10 -10 -5 0 -10 5 -10 10 0
6 5 10 10 10 6 0 10 -4 10 -10z m1870 -31 c24 -56 -23 -123 -82 -117 -25 2
-34 8 -36 26 -2 12 -8 20 -13 17 -5 -4 -9 -4 -9 -1 0 11 24 56 30 56 16 0 30
-27 30 -57 0 -45 25 -43 40 3 12 34 10 61 -5 96 -5 13 -2 15 13 11 11 -3 26
-18 32 -34z m1190 19 l-25 -23 45 -6 45 -6 -41 -1 c-40 -2 -42 -3 -46 -39 -3
-21 -1 -50 3 -65 9 -35 -5 -36 -27 -3 -9 14 -14 39 -12 62 3 34 1 38 -19 35
-12 -2 -24 2 -28 8 -4 6 5 10 23 10 21 0 35 8 46 25 9 14 26 25 38 25 22 0 22
0 -2 -22z m420 -43 c0 -30 4 -65 10 -79 6 -16 6 -26 0 -26 -15 0 -38 41 -45
80 -6 36 -15 53 -15 29 0 -25 -90 -119 -113 -119 l-22 1 23 12 c22 13 59 57
47 57 -4 0 -16 -5 -28 -11 -21 -10 -21 -10 -3 5 11 9 25 16 32 16 12 0 54 51
54 65 0 8 -34 -2 -74 -21 -16 -8 -32 -12 -35 -8 -8 8 19 23 64 34 22 6 51 14
65 18 36 12 40 7 40 -53z m-5590 45 c0 -5 -7 -10 -16 -10 -8 0 -12 5 -9 10 3
6 10 10 16 10 5 0 9 -4 9 -10z m185 0 c3 -5 -1 -10 -9 -10 -9 0 -16 5 -16 10
0 6 4 10 9 10 6 0 13 -4 16 -10z m1430 1 c3 -5 1 -12 -4 -15 -12 -8 -41 3 -41
15 0 12 37 12 45 0z m4868 3 c62 -11 42 -20 -34 -16 l-70 4 1 -63 c2 -87 2
-87 -20 -60 -14 16 -20 38 -20 72 0 53 -3 55 -59 39 -26 -7 -32 -7 -23 2 22
22 147 34 225 22z m685 -12 c3 -9 -3 -11 -22 -6 -27 6 -116 -20 -116 -35 0 -4
31 -5 70 -3 60 4 71 2 77 -13 18 -48 -128 -109 -166 -70 -15 16 -14 17 7 10
31 -9 75 2 101 26 31 29 16 41 -47 37 -46 -2 -57 0 -60 13 -7 38 144 78 156
41z m-5459 -39 c1 -18 -41 -16 -75 3 l-29 16 27 -6 c34 -8 58 2 59 23 0 12 2
12 9 -4 5 -11 9 -26 9 -32z m5198 -28 c-2 -77 -6 -86 -27 -60 -12 15 -9 103 5
125 16 26 24 3 22 -65z m426 44 c-1 -13 -3 -46 -4 -72 -1 -53 -20 -60 -29 -11
-8 39 8 116 23 111 7 -2 11 -15 10 -28z m183 16 c-4 -12 5 -15 47 -16 47 -1
49 -2 22 -10 -16 -5 -38 -7 -48 -5 -22 5 -40 -36 -34 -76 2 -16 0 -28 -4 -28
-16 0 -30 31 -27 62 3 31 0 34 -37 45 l-40 11 48 1 c35 1 47 5 47 16 0 8 7 15
16 15 10 0 14 -6 10 -15z m-3716 -5 c11 -7 15 -27 15 -70 0 -33 -1 -60 -3 -60
-2 0 -12 5 -23 10 -15 8 -19 21 -19 60 l0 50 -30 -6 c-16 -4 -42 -3 -57 2 -26
7 -24 9 22 14 77 10 79 10 95 0z m1856 -65 c-1 -72 -2 -74 -19 -56 -16 15 -18
27 -12 75 5 35 12 56 20 56 9 0 12 -21 11 -75z m-1032 13 c-5 -37 -4 -49 5
-44 6 4 11 3 11 -3 0 -19 -22 -23 -37 -8 -20 20 -10 107 13 107 12 0 13 -10 8
-52z m1093 -17 c-2 -67 -3 -69 -20 -53 -19 17 -18 54 2 120 1 1 5 2 10 2 6 0
9 -31 8 -69z m-4544 42 c-7 -2 -19 -2 -25 0 -7 3 -2 5 12 5 14 0 19 -2 13 -5z
m2894 -19 c3 -8 0 -21 -7 -27 -10 -10 -12 -8 -7 6 8 23 -19 23 -28 0 -4 -12 1
-24 15 -35 20 -16 21 -18 4 -18 -24 1 -54 23 -54 40 0 38 64 67 77 34z m331
-1 c-2 -12 -13 -18 -30 -18 -26 -1 -26 0 -11 17 21 23 46 23 41 1z m89 1 c3
-8 0 -21 -7 -27 -10 -10 -12 -8 -7 6 5 14 3 18 -10 15 -24 -5 -24 -36 0 -54
l22 -16 -25 6 c-14 3 -28 6 -32 6 -4 0 -10 9 -13 21 -13 40 57 83 72 43z m302
3 c11 -14 5 -27 -11 -27 -5 0 -6 5 -3 10 3 6 -1 10 -9 10 -22 0 -28 -17 -16
-41 8 -14 18 -19 32 -16 15 4 18 3 10 -5 -16 -16 -70 0 -77 23 -13 40 47 77
74 46z m55 -40 c3 -26 1 -37 -9 -37 -21 0 -36 66 -18 84 11 11 22 -7 27 -47z
m66 33 c0 -15 -6 -19 -29 -17 -27 2 -28 3 -14 20 21 23 43 22 43 -3z m87 4 c3
-8 0 -21 -6 -27 -9 -9 -11 -8 -6 4 8 21 -11 34 -22 17 -14 -24 -11 -38 10 -53
15 -11 17 -15 6 -15 -19 0 -59 28 -59 42 0 36 65 64 77 32z m326 -37 c4 -31 1
-37 -12 -35 -17 3 -27 48 -16 76 9 23 23 3 28 -41z m67 33 c0 -15 -6 -19 -29
-17 -27 2 -28 3 -14 20 21 23 43 22 43 -3z m845 0 c0 -9 -10 -15 -27 -16 -24
-1 -26 1 -17 18 12 22 44 20 44 -2z m280 -1 c0 -8 -11 -14 -27 -15 -33 -1 -33
0 -12 21 19 18 39 15 39 -6z m333 -1 c2 -10 -2 -18 -8 -18 -6 0 -8 5 -5 10 3
6 -1 10 -10 10 -27 0 -31 -31 -6 -52 26 -20 16 -23 -23 -8 -30 11 -34 40 -10
65 21 20 58 16 62 -7z m-2627 -4 c-16 -12 -22 -23 -18 -41 3 -18 0 -23 -12
-21 -9 2 -18 14 -19 28 -4 27 20 50 52 50 19 0 19 -1 -3 -16z m110 -1 c0 -10
2 -28 3 -41 2 -16 -2 -22 -13 -20 -23 4 -29 78 -7 78 9 0 16 -8 17 -17z m936
1 c3 -8 0 -27 -6 -40 -9 -20 -17 -25 -39 -22 -51 6 -38 78 15 78 13 0 26 -7
30 -16z m579 -15 c-5 -25 -3 -30 9 -26 9 4 12 1 8 -9 -11 -29 -38 -10 -41 29
-3 29 0 37 14 37 13 0 15 -6 10 -31z m64 -9 c0 -15 -9 -39 -21 -54 -16 -20
-28 -26 -57 -25 -34 2 -35 2 -7 6 43 7 58 22 51 55 -3 15 -3 34 0 42 9 24 34
6 34 -24z m95 20 c10 -32 -12 -62 -43 -58 -50 6 -38 78 14 78 14 0 25 -8 29
-20z m52 -20 c-2 -50 -21 -47 -25 3 -2 28 1 37 12 37 11 0 15 -10 13 -40z
m113 -1 c0 -52 -24 -48 -28 4 -2 28 1 37 12 37 12 0 16 -11 16 -41z m282 1 c3
-32 0 -40 -12 -38 -21 4 -27 78 -7 78 10 0 16 -13 19 -40z m129 24 c-16 -12
-22 -23 -18 -41 3 -18 0 -23 -12 -21 -41 8 -13 78 32 78 21 0 21 0 -2 -16z
m107 -9 c7 -36 19 -37 38 -6 21 36 38 41 28 9 -8 -28 -33 -58 -48 -58 -20 1
-43 25 -50 53 -6 24 -4 28 11 25 10 -2 19 -12 21 -23z m585 11 c7 -17 -2 -56
-12 -56 -4 0 -5 14 -3 31 4 24 1 30 -9 27 -8 -3 -14 -19 -14 -37 0 -26 -3 -31
-20 -29 -27 4 -33 47 -9 65 23 17 60 17 67 -1z m112 -26 c0 -30 -4 -40 -15
-38 -28 6 -25 78 3 78 9 0 13 -13 12 -40z m292 24 c3 -8 1 -25 -5 -37 -10 -20
-11 -20 -11 11 -1 38 -18 42 -27 6 -4 -17 -2 -29 7 -35 11 -7 11 -9 -3 -9 -30
0 -48 12 -48 32 0 40 73 67 87 32z m127 -21 c-8 -45 -9 -47 -23 -38 -6 3 -11
18 -12 33 -1 27 -1 27 -15 -6 -18 -40 -44 -40 -55 1 -6 22 -4 27 12 27 11 0
19 -7 19 -17 1 -14 5 -12 21 10 11 15 29 27 40 27 17 0 19 -5 13 -37z m1944
19 c3 -9 -3 -13 -19 -10 -12 1 -24 9 -27 16 -3 9 3 13 19 10 12 -1 24 -9 27
-16z m167 8 c3 -5 -1 -10 -9 -10 -9 0 -16 5 -16 10 0 6 4 10 9 10 6 0 13 -4
16 -10z m-2355 -23 c0 -13 5 -28 12 -35 9 -9 9 -12 -3 -12 -8 0 -20 5 -27 12
-17 17 -15 58 3 58 9 0 15 -9 15 -23z m-2870 -32 c0 -34 -4 -45 -15 -45 -12 0
-15 10 -13 45 4 61 28 61 28 0z m1430 15 c0 -32 -9 -37 -28 -18 -19 19 -15 48
8 48 16 0 20 -7 20 -30z m1320 0 c0 -32 -11 -38 -29 -16 -14 16 -4 46 15 46 9
0 14 -11 14 -30z m-3170 0 c0 -11 6 -20 13 -20 8 0 8 -3 -2 -9 -19 -12 -51 8
-51 31 0 11 8 18 20 18 13 0 20 -7 20 -20z m2363 -7 c7 -36 2 -40 -21 -20 -10
10 -21 14 -25 11 -3 -3 -3 3 0 15 8 31 40 27 46 -6z m4127 -40 c0 -5 -14 -16
-32 -26 -24 -14 -28 -15 -18 -2 10 12 10 15 -1 15 -11 0 -11 2 1 10 18 12 50
13 50 3z m-1240 -53 c0 -5 -4 -10 -10 -10 -5 0 -10 5 -10 10 0 6 5 10 10 10 6
0 10 -4 10 -10z m445 -30 c4 -6 11 -7 17 -4 7 4 8 2 4 -4 -8 -14 -56 -16 -56
-4 0 21 25 29 35 12z m-9299 -22 c11 -18 -13 -33 -31 -18 -8 7 -15 15 -15 19
0 11 39 11 46 -1z m1552 -25 c2 -8 -6 -13 -22 -13 -17 0 -26 5 -26 16 0 19 41
16 48 -3z m7170 -65 c-3 -7 -17 -14 -31 -16 -21 -3 -26 0 -21 12 7 19 58 22
52 4z m-8308 -18 c0 -5 -6 -10 -14 -10 -8 0 -18 5 -21 10 -3 6 3 10 14 10 12
0 21 -4 21 -10z m7730 0 c-8 -5 -19 -10 -25 -10 -5 0 -3 5 5 10 8 5 20 10 25
10 6 0 3 -5 -5 -10z m-12 -31 c-6 -4 -3 -11 8 -18 11 -6 14 -11 7 -11 -6 0
-14 4 -18 10 -10 17 -77 5 -96 -18 -18 -23 -39 -29 -39 -12 0 5 16 17 35 26
19 9 35 22 35 29 0 8 8 15 18 17 22 5 64 -15 50 -23z m-339 -15 c5 4 20 -8 32
-26 13 -18 16 -28 8 -21 -8 7 -30 10 -49 8 -25 -3 -31 -2 -20 5 13 8 13 12 1
32 -13 21 -13 22 2 10 9 -8 20 -11 26 -8z m1795 -19 c-6 -16 -54 -21 -54 -7 0
15 12 22 36 22 17 0 22 -4 18 -15z m-67 -1 c-3 -3 -12 -4 -19 -1 -8 3 -5 6 6
6 11 1 17 -2 13 -5z m-8737 -34 c0 -5 -7 -10 -15 -10 -8 0 -15 5 -15 10 0 6 7
10 15 10 8 0 15 -4 15 -10z m-162 -12 c-6 -18 -28 -21 -28 -4 0 9 7 16 16 16
9 0 14 -5 12 -12z m1332 -38 c0 -5 -4 -10 -10 -10 -5 0 -10 5 -10 10 0 6 5 10
10 10 6 0 10 -4 10 -10z m-120 -20 c0 -5 -4 -10 -9 -10 -6 0 -13 5 -16 10 -3
6 1 10 9 10 9 0 16 -4 16 -10z m-2377 -67 c-7 -2 -19 -2 -25 0 -7 3 -2 5 12 5
14 0 19 -2 13 -5z m3287 -163 c0 -5 -5 -10 -11 -10 -5 0 -7 5 -4 10 3 6 8 10
11 10 2 0 4 -4 4 -10z m3170 0 c0 -5 -2 -10 -4 -10 -3 0 -8 5 -11 10 -3 6 -1
10 4 10 6 0 11 -4 11 -10z m-2980 -35 c0 -8 -6 -15 -14 -15 -17 0 -28 14 -19
24 12 12 33 6 33 -9z m-2650 1 c0 -11 -19 -15 -25 -6 -3 5 1 10 9 10 9 0 16
-2 16 -4z m4334 -55 c3 -5 -3 -11 -13 -14 -12 -3 -22 1 -25 9 -6 16 29 20 38
5z m4326 -22 c0 -5 -9 -9 -20 -9 -11 0 -20 6 -20 14 0 9 7 12 20 9 11 -3 20
-9 20 -14z m-3845 1 c-3 -5 -10 -10 -16 -10 -5 0 -9 5 -9 10 0 6 7 10 16 10 8
0 12 -4 9 -10z m-5904 -23 c-5 -5 -18 -7 -28 -3 -14 6 -15 9 -4 16 19 11 46 1
32 -13z m4839 -42 c0 -16 -17 -19 -45 -9 -13 5 -14 8 -3 15 21 14 48 10 48 -6z
m3027 -36 c-14 -8 -22 -8 -30 0 -8 8 -3 11 19 11 25 -1 27 -2 11 -11z m-687
-9 c0 -5 -4 -10 -10 -10 -5 0 -10 5 -10 10 0 6 5 10 10 10 6 0 10 -4 10 -10z
m-6646 -216 c25 -9 19 -24 -9 -24 -24 0 -32 10 -18 23 8 8 8 8 27 1z"/>
<path d="M7395 4514 c-5 -1 -23 -5 -38 -8 l-28 -7 31 -44 c16 -24 30 -46 30
-49 0 -3 -13 -6 -29 -6 -16 0 -39 -9 -52 -21 l-24 -20 35 5 c19 2 49 8 65 11
28 6 33 2 70 -54 22 -33 45 -62 50 -64 16 -6 327 85 318 93 -4 4 -51 22 -103
41 l-95 34 50 10 c66 15 44 27 -46 26 -53 0 -89 6 -147 28 -42 15 -81 27 -87
25z"/>
<path d="M8225 4370 c-97 -11 -118 -17 -512 -129 -687 -196 -818 -234 -848
-241 -45 -11 -1514 -433 -1630 -468 -55 -17 -152 -47 -215 -67 -63 -20 -146
-46 -183 -58 -66 -20 -117 -54 -117 -78 0 -6 7 -8 17 -5 9 4 187 56 397 115
210 60 687 197 1061 304 1193 342 1794 503 2061 553 230 43 694 24 1254 -51
90 -12 53 2 -86 34 -333 77 -462 92 -824 96 -168 2 -336 0 -375 -5z"/>
<path d="M8245 4204 c-188 -44 -820 -201 -1020 -253 -350 -91 -444 -116 -705
-186 -151 -41 -367 -99 -480 -130 -113 -31 -227 -63 -255 -70 -50 -14 -200
-55 -500 -139 -88 -24 -263 -75 -390 -111 -126 -37 -247 -72 -268 -77 -21 -6
-36 -13 -34 -15 3 -2 144 32 313 76 422 109 941 241 1419 360 413 104 737 183
1270 311 66 16 176 42 245 59 69 16 202 48 295 71 209 51 290 68 380 81 91 13
595 13 750 -1 185 -16 482 -47 525 -56 18 -3 21 -2 10 5 -17 10 -134 33 -290
56 -216 32 -430 46 -770 50 l-345 4 -150 -35z"/>
<path d="M6811 4140 c-49 -12 -85 -43 -89 -75 -3 -23 0 -27 15 -23 10 3 73 20
140 38 67 18 120 36 118 40 -4 7 -38 14 -120 25 -16 2 -45 0 -64 -5z"/>
<path d="M8580 4095 c-63 -7 -149 -21 -190 -30 -41 -9 -104 -23 -140 -30 -136
-29 -606 -135 -810 -184 -69 -16 -165 -39 -215 -51 -49 -12 -272 -66 -495
-121 -223 -55 -479 -118 -570 -140 -91 -22 -264 -64 -385 -94 -403 -99 -740
-177 -1265 -296 -30 -7 -59 -16 -63 -20 -5 -4 17 -1 50 6 131 28 257 56 423
94 96 22 288 65 425 95 138 31 279 63 315 71 159 36 391 87 585 130 116 25
228 50 250 55 89 22 577 127 855 185 63 13 203 42 310 65 1101 233 1019 220
1430 220 272 0 689 -8 768 -15 18 -1 30 1 25 5 -11 11 -391 47 -613 60 -235
13 -549 11 -690 -5z"/>
<path d="M6362 4010 c-32 -20 -61 -64 -49 -76 4 -4 71 11 149 33 l143 40 -40
11 c-66 19 -165 15 -203 -8z"/>
<path d="M11245 3989 c-60 -5 -243 -18 -405 -29 -733 -52 -1300 -103 -1940
-176 -430 -49 -503 -63 -630 -123 -47 -22 -105 -47 -130 -55 -35 -13 -513 -92
-971 -161 -54 -8 -732 -113 -869 -135 -69 -10 -197 -31 -285 -44 -88 -14 -250
-39 -360 -56 -110 -17 -254 -39 -320 -50 -230 -37 -640 -102 -705 -111 -153
-22 -386 -60 -398 -64 -39 -14 101 -156 201 -204 118 -56 146 -61 315 -61 140
0 376 7 912 25 91 3 300 10 465 15 165 5 410 14 545 20 135 5 364 14 510 20
146 5 434 17 640 25 206 8 609 24 895 35 286 11 624 24 750 30 127 5 421 17
655 25 273 10 447 21 488 30 182 41 417 283 828 853 73 102 131 189 128 194
-6 10 -168 8 -319 -3z m-3195 -534 c0 -6 -74 -74 -102 -94 -18 -12 -101 -26
-308 -51 -41 -5 -201 -25 -355 -44 -154 -20 -285 -36 -290 -36 -13 0 -59 59
-52 66 6 6 122 24 522 79 182 25 384 54 450 65 66 10 123 18 128 19 4 1 7 -1
7 -4z m-1246 -209 c14 -19 26 -37 26 -39 0 -2 -33 -8 -72 -11 -40 -4 -83 -10
-94 -12 -16 -4 -27 3 -44 26 -12 17 -19 34 -16 37 5 5 115 26 162 32 7 0 23
-14 38 -33z m-316 -46 c12 -16 22 -31 22 -33 0 -8 -155 -18 -172 -12 -8 3 -20
17 -26 30 -11 23 -9 24 36 30 26 4 52 8 57 10 34 12 63 3 83 -25z m-315 -36
c11 -14 17 -27 15 -29 -2 -3 -36 -7 -74 -11 -67 -6 -71 -6 -87 19 l-17 26 53
9 c80 15 91 13 110 -14z m-239 -29 c9 -13 16 -26 16 -28 0 -7 -101 -15 -119
-10 -10 2 -22 13 -29 23 -10 17 -7 19 41 28 29 5 57 10 63 11 7 0 19 -10 28
-24z m-217 -34 c10 -17 8 -19 -19 -25 -53 -11 -84 -7 -102 13 -17 18 -17 19 1
24 10 3 38 5 63 6 34 1 48 -4 57 -18z m-184 -19 c23 -25 13 -32 -49 -32 -47 0
-64 9 -64 35 0 3 31 8 81 13 9 1 23 -6 32 -16z m-158 -19 c15 -15 15 -17 1
-25 -27 -15 -90 -5 -94 14 -2 12 5 18 30 21 18 2 36 5 40 5 4 1 14 -5 23 -15z
m-135 -42 c0 -5 -56 -7 -87 -3 -28 4 -12 31 20 34 28 3 67 -15 67 -31z m-131
5 c10 -12 6 -15 -19 -21 -35 -8 -71 12 -48 26 20 13 54 10 67 -5z m-104 -16
c18 -20 17 -20 -22 -20 -51 0 -79 26 -36 33 15 2 31 5 34 6 3 0 14 -8 24 -19z
m-107 -12 c19 -19 14 -24 -28 -25 -40 -2 -57 8 -45 27 9 14 58 13 73 -2z m-98
-13 c10 -12 7 -15 -14 -21 -16 -4 -32 -1 -42 7 -14 12 -14 14 3 20 28 12 40
10 53 -6z"/>
<path d="M7930 3423 c-14 -2 -232 -33 -485 -69 -252 -36 -461 -66 -462 -68 -8
-8 11 -36 24 -36 8 0 213 25 456 55 452 57 478 62 517 110 13 16 6 17 -50 8z"/>
<path d="M6697 3250 c-57 -10 -60 -12 -51 -34 6 -15 15 -16 58 -11 28 4 59 9
69 12 18 5 18 6 1 24 -9 10 -20 18 -23 18 -3 -1 -28 -5 -54 -9z"/>
<path d="M6372 3203 c-40 -5 -38 -27 3 -31 48 -6 95 7 88 23 -5 15 -23 16 -91
8z"/>
<path d="M6075 3161 c-23 -6 -26 -9 -13 -15 22 -10 83 -3 83 9 0 13 -31 15
-70 6z"/>
<path d="M5855 3130 c-25 -6 -27 -8 -12 -15 22 -9 70 2 62 15 -7 11 -7 11 -50
0z"/>
<path d="M5645 3100 c-30 -8 -30 -8 8 -9 23 -1 36 3 32 9 -3 6 -7 9 -8 9 -1
-1 -15 -5 -32 -9z"/>
<path d="M5460 3070 c0 -12 8 -12 35 0 18 8 17 9 -7 9 -16 1 -28 -3 -28 -9z"/>
<path d="M5320 3050 c0 -5 7 -7 15 -4 8 4 15 8 15 10 0 2 -7 4 -15 4 -8 0 -15
-4 -15 -10z"/>
<path d="M9284 3970 c-420 -11 -537 -23 -849 -86 -257 -51 -1104 -223 -1285
-261 -69 -14 -143 -29 -165 -33 -220 -40 -2302 -463 -2308 -469 -4 -4 32 0 80
10 48 10 284 55 523 99 239 44 494 91 565 105 72 13 182 34 245 45 133 24 318
58 545 101 88 16 196 36 240 44 105 20 342 63 705 131 162 30 319 59 348 65
28 5 76 13 105 18 117 21 502 93 642 121 191 37 292 46 975 90 178 11 243 18
184 19 -50 0 -131 3 -180 5 -49 2 -216 1 -370 -4z"/>
<path d="M4628 3113 c6 -2 18 -2 25 0 6 3 1 5 -13 5 -14 0 -19 -2 -12 -5z"/>
<path d="M4545 3100 c-14 -7 -8 -8 20 -3 22 3 42 7 44 9 9 8 -45 2 -64 -6z"/>
<path d="M4468 3083 c7 -3 16 -2 19 1 4 3 -2 6 -13 5 -11 0 -14 -3 -6 -6z"/>
<path d="M5180 3911 c-48 -15 -91 -30 -97 -34 -15 -9 39 -172 58 -172 21 0
549 159 549 166 0 3 -84 18 -187 33 -104 15 -199 29 -213 31 -14 3 -63 -8
-110 -24z"/>
<path d="M5955 3853 c-44 -6 -326 -77 -510 -129 -300 -85 -440 -132 -465 -159
-13 -14 -22 -27 -19 -29 2 -2 72 15 154 39 83 23 233 66 335 95 241 68 624
181 629 186 5 5 -82 3 -124 -3z"/>
<path d="M6572 2317 c-13 -6 -32 -28 -43 -49 l-19 -38 40 0 c46 0 80 27 80 64
0 18 -21 40 -33 35 -1 0 -12 -5 -25 -12z"/>
<path d="M10563 2324 c-24 -10 -63 -75 -77 -128 -24 -92 9 -148 64 -108 64 48
128 182 86 182 -11 0 -16 9 -16 30 0 25 -4 30 -22 29 -13 0 -28 -3 -35 -5z"/>
<path d="M8563 2320 c-21 -8 -53 -57 -53 -80 0 -16 63 -12 88 6 26 18 30 69 6
78 -9 3 -16 6 -17 5 -1 0 -12 -4 -24 -9z"/>
<path d="M5390 2295 c-5 -14 -10 -31 -10 -36 0 -5 -4 -9 -10 -9 -6 0 -10 -31
-10 -74 0 -77 13 -104 45 -92 45 17 79 148 53 202 -18 40 -55 44 -68 9z"/>
<path d="M9740 2285 c-6 -19 -16 -35 -21 -35 -16 0 -11 -146 6 -160 24 -20 52
-2 74 50 27 62 28 140 3 163 -29 27 -49 21 -62 -18z"/>
<path d="M8157 1863 c-10 -10 -8 -53 2 -53 10 0 21 24 21 46 0 15 -12 19 -23
7z"/>
<path d="M8886 1854 c-10 -26 -7 -44 8 -44 14 0 29 37 20 52 -8 13 -21 9 -28
-8z"/>
</g>
</svg>
